<?xml version="1.0" encoding="utf-8"?>
<!-- Svg Vector Icons : http://www.onlinewebfonts.com/icon -->
<!DOCTYPE svg PUBLIC "-//W3C//DTD SVG 1.1//EN" "http://www.w3.org/Graphics/SVG/1.1/DTD/svg11.dtd">
<svg version="1.1" xmlns="http://www.w3.org/2000/svg" xmlns:xlink="http://www.w3.org/1999/xlink" x="0px" y="0px" viewBox="0 0 1000 1000" enable-background="new 0 0 1000 1000" xml:space="preserve">
<metadata> Svg Vector Icons : http://www.onlinewebfonts.com/icon </metadata>
<g><g transform="matrix(1 0 0 -1 0 1920)"><path d="M112.1,930C84,930,60,940,40,960c-20,20-30,44-30,72.1v775.8c0,28,10,52.1,30,72.1c20,20,44,30,72.1,30h775.8c28,0,52.1-10,72.1-30s30-44,30-72.1v-775.8c0-28-10-52.1-30-72.1s-44-30-72.1-30H112.1z M375.5,1110.9c37.6,0,73.5,4.3,107.8,12.9c34.3,8.6,65.2,20.5,92.7,35.7c27.5,15.2,52.9,33.3,76.4,54.3c23.4,21,43.6,43.8,60.6,68.4c17,24.6,31.5,50.6,43.5,77.8c12,27.2,20.9,55,26.7,83.3c5.9,28.3,8.8,56.4,8.8,84.1c0,5.7-0.1,12-0.4,18.8c28.9,21,53.2,46.3,73.1,76c-26.7-12-54.7-19.7-84.1-23.3c15.2,9.3,28.4,20.8,39.6,34.7c11.2,13.9,19.5,29.4,24.9,46.6c-28.9-17.2-59.9-29-93.1-35.5c-9,9.5-19,17.7-30,24.5c-11,6.8-23.1,12.1-36.3,15.9s-26.6,5.7-40.2,5.7c-19.9,0-38.9-3.9-57-11.6s-33.7-18.2-46.8-31.2c-13.1-13.1-23.5-28.7-31.2-46.8c-7.8-18.1-11.6-37.1-11.6-57c0-11.4,1.2-22.5,3.7-33.1c-59.9,3-116,18-168.2,44.9c-52.3,26.9-96.6,62.9-133.1,107.8c-13.3-22.6-20-47.1-20-73.5c0-25,5.9-48.3,17.6-69.6c11.7-21.4,27.5-38.7,47.4-52.1c-23.1,0.5-45.2,6.5-66.1,18v-1.6c0-35.1,11.2-66.1,33.5-93.1s50.4-43.8,84.1-50.6c-12.8-3.3-25.7-4.9-38.8-4.9c-9.8,0-18.9,0.8-27.4,2.5c9.3-29.4,26.4-53.6,51.4-72.5c25-18.9,53.5-28.7,85.3-29.2c-25.6-19.9-53.9-35.3-84.9-46.1c-31-10.9-63.4-16.3-97.2-16.3c-11.4,0-23,0.7-34.7,2C219.6,1132.8,294.3,1110.9,375.5,1110.9z"/></g></g>
</svg>